# xmcd
#
# Track frame offsets:
#	150
#	20476
#	42753
#	96434
#	137173
#	163796
#	198979
#	223169
#	257948
#	285872
#	317747
#
# Disc length: 4531 seconds
#
# Revision: 0
# Processed by: cddbd v1.5.2PL0 Copyright (c) Steve Scherf et al.
# Submitted via: audiograbber 1.83.01
#
DISCID=a111b10b
DTITLE=Grateful Dead - 92-06-23 Star Lake Amphitheatre, Burgettstown PA
DYEAR=1900
DGENRE=
TTITLE0=Help On The Way
TTITLE1=Slipknot!
TTITLE2=Franklin's Tower
TTITLE3=New Minglewood Blues
TTITLE4=Stagger Lee
TTITLE5=Black Throated Wind
TTITLE6=Big Railroad Blues
TTITLE7=Memphis Blues
TTITLE8=New Speedway Boogie
TTITLE9=Truckin'
TTITLE10=Spoonful
EXTD=
EXTT0=
EXTT1=
EXTT2=
EXTT3=
EXTT4=
EXTT5=
EXTT6=
EXTT7=
EXTT8=
EXTT9=
EXTT10=
PLAYORDER=
